<?xml version="1.0" standalone="no"?>
<!DOCTYPE svg PUBLIC "-//W3C//DTD SVG 1.1//EN" "http://www.w3.org/Graphics/SVG/1.1/DTD/svg11.dtd">
<svg xmlns="http://www.w3.org/2000/svg" width="605" height="507" viewBox="0 0 605 507"><defs><linearGradient x1="40.632%" y1="18.882%" x2="59.36%" y2="81.106%" id="a"><stop stop-color="#FFF" stop-opacity=".2" offset="0%"/><stop stop-color="#FFF" stop-opacity="0" offset="100%"/></linearGradient><linearGradient x1="-.008%" y1="49.99%" x2="100.037%" y2="49.99%" id="b"><stop stop-color="#FFF" stop-opacity=".1" offset="0%"/><stop stop-color="#FFF" stop-opacity="0" offset="100%"/></linearGradient><linearGradient x1="-.026%" y1="50.146%" x2="99.969%" y2="50.146%" id="c"><stop stop-color="#FFF" stop-opacity=".1" offset="0%"/><stop stop-color="#FFF" stop-opacity="0" offset="100%"/></linearGradient><linearGradient x1=".042%" y1="50.007%" x2="100.047%" y2="50.007%" id="d"><stop stop-color="#FFF" stop-opacity=".1" offset="0%"/><stop stop-color="#FFF" stop-opacity="0" offset="100%"/></linearGradient><linearGradient x1=".015%" y1="50.01%" x2="99.993%" y2="50.01%" id="e"><stop stop-color="#FFF" stop-opacity=".1" offset="0%"/><stop stop-color="#FFF" stop-opacity="0" offset="100%"/></linearGradient><linearGradient x1=".516%" y1="50.005%" x2="99.848%" y2="50.005%" id="f"><stop stop-color="#FFF" stop-opacity=".1" offset="0%"/><stop stop-color="#FFF" stop-opacity="0" offset="100%"/></linearGradient><linearGradient x1=".005%" y1="47.8%" x2="100.017%" y2="47.8%" id="g"><stop stop-color="#FFF" stop-opacity=".1" offset="0%"/><stop stop-color="#FFF" stop-opacity="0" offset="100%"/></linearGradient></defs><g fill-rule="nonzero" fill="none"><path d="M80.6 316.8H15.8C7.4 316.8.6 310 .6 301.6V15.7C.6 7.3 7.4.5 15.8.5h64.8c8.4 0 15.2 6.8 15.2 15.2v285.9c-.1 8.4-6.8 15.2-15.2 15.2z" fill="url(#a)" opacity=".3" transform="translate(128 95)"/><path d="M461 411.8h-64.5c-8.4 0-15.2-6.8-15.2-15.2V110.7c-.1-8.1 6.8-15.2 15.2-15.2H461c8.4 0 15.2 6.8 15.2 15.2v285.9c0 8.4-6.8 15.2-15.2 15.2z" fill="#00BFA5"/><path d="M474.6 396.5V110.7c0-7.5-6-14.2-14.5-15.2 9.3 0 16 6.7 15.9 15.2v285.9h-1.4v-.1z" opacity=".3" fill="#04A88C"/><path d="M382.8 397.3h-1.5V111.5c-.1-5.5 2.2-9.6 5.4-12.3 2.4-2 5.8-3.5 8.6-3.6.6 0 1.3-.1 2-.1H461.9c4 0 8.9 2.4 11.8 6.8 1.6 2.5 2.6 5.6 2.5 9.1 0-8-6.5-14.5-14.4-14.5h-64.5c-5 0-9.1 1.9-11.6 5.3-1.4 1.9-2.7 4.3-3 6.9-.3 2.5-.2 4.9-.2 5.7l.3 282.5z" opacity=".3" fill="#1CE9B6"/><path d="m208.6 411.8-63.2-1.3c-8.4 0-16.4-5.5-16.4-13.9V110.7c0-8.4 6.8-15.2 15.2-15.2h64.5c8.4 0 15.2 6.8 15.2 15.2v285.9c-.2 8.4-6.9 15.2-15.3 15.2z" fill="#4285F4"/><path d="m257.9 215.1 124.7 188c4 7.1 8.5 8.7 14.7 8.7h63.6c16.4 0 17.3-20 14.7-24.6l-126.9-188c-3.6-5.5-8.5-8.7-14.7-8.7" fill="#1CE9B6"/><path d="M398.6 411.8c-6.1 0-11.5-1-15.6-8.3l-79.8-120.3-44.6-67.8 1.2-.8 124.1 187.6.4.7c4 7.1 8.6 8.9 14.3 8.9z" opacity=".4" fill="#46F7C5"/><path d="M223.7 251.8h-.6l.3-141.9.3-.2z" opacity=".3" fill="#2A6FD3"/><path d="M130.2 392.1h-1.3V111c0-.8 0-1.6.1-2.4.6-4.4 2.9-7.9 6.2-10.2 2.5-1.8 5.5-2.8 8.7-2.8h65.2c4.3 0 8.5 2.3 11.2 5.6 2.1 2.6 3.3 6 3.3 8.8h-.3c0-5.2-6-13-14.2-13h-65.2c-4.3 0-8.2 2-10.7 5.2-1.2 1.5-3.8 5.4-3.8 10.6l.8 279.3z" opacity=".3" fill="#4FC3F7"/><path d="M460.9 411.8h-63.5c-6.1 0-10.4-1.2-14.6-8.7l1.3-.7c3.9 7 7.6 8 13.4 8H461c5.5 0 9.3-2 11.9-6.6 3.5-6.1 3.2-13.1 1.8-15.5L347.3 199.6l1.2-.8 127.4 188.7c1.8 3.1.3 13.8-1.8 17-2.2 3.5-5.6 7.3-13.2 7.3z" opacity=".3" fill="#24CE9E"/><path d="M209.8 411.7h-64.9c-13.3 0-19.6-12.8-14.7-24.6l127.7-188c3.6-5.5 8.5-8.7 14.7-8.7h61.9c12.6 0 20.3 13.6 14.2 24.7L224.4 403c-3.5 5.5-8.5 8.7-14.6 8.7z" fill="#4FC3F7"/><path d="m155 411.7-9.3.1c-6.6.1-11.4-2.6-14.4-7.1-3.2-4.9-3.6-11.2-1-17.5l.1-.2L258 198.9c3.9-5.9 9.1-8.6 15.1-8.6H335c2.3.1 4.6.6 6.5 1.6 1.5.7 3 1.7 4.2 2.9 1.1 1.1 2.1 2.4 3 3.9 0 0-8.2-6.9-13.7-6.9h-61.9c-5.6 0-10.3 2.4-13.9 7.9l-127.6 188c-2.4 5.8-2.1 11.7.9 16.1 2.8 4.2 7.4 7.2 13.2 7.2l9.3.7z" opacity=".3" fill="#6ED2F4"/><path d="M209.8 411.7c-2.4 0-54.5.1-64.8 0h-1.7c-3.2-.2-6.1-1.4-8.5-3.1l-2.4-2.4c2.2 1.6 7.7 3.8 10.6 4 2.4.1 66.1.1 66.8.1 5.7 0 10.4-3.1 14-8.6L348 213.8c2.8-5.1 2.3-10.6-.7-15.5-1.1-1.8-2.6-4.6-4.7-5.8-3.6-2.1-2.3-1.3 0 0 2.2 1.2 4 2.9 5.5 5.2 3.4 5.2 3.5 12.3 1 16.8 0 .1-.1.1-.1.2-10.3 15.7-27.3 41.4-45.5 68.9-36.9 55.8-78.6 118.8-78.6 118.8-4 6.2-9 9.3-15.1 9.3z" opacity=".3" fill="#30A5CE"/><g opacity=".3" fill="#4FC3F7"><path d="M158.3 453.8c0-5.6-5-9.5-10.2-9.5l-73.7-.7c-1.9 0-3.7-.5-5.3-1.5l-.2-.1c-.4-.2-.8-.4-1.1-.7l-.5-.4c1.1.9 2.4 1.5 3.7 1.8.1 0 1 .2 1.1.2.4.1.8.1 1.2.1H148c2.4 0 4.5.8 6.2 2.1 1.2.9 2.4 2.2 3 3.8.8 1.4 1.2 2.6 1.1 4.9zM10.1.6h138.2c4.7 0 10 4.1 10 9.9 0-5.1-5.9-8.7-10-8.7H10.1c-.3 0-.4.1-.8.1L7.6.9C8.1.8 9.1.6 10.1.6z"/></g><g opacity=".3" fill="#1CE9B6"><path d="M530.1 64.2c6 0 10.8 3.6 10.8 9.6l.3 358.9c.1 3.4-1.1 6.5-3.3 8.7-2.2 2.3-5.3 3.5-8.9 3.4h-73.3c-5.2 0-8.9 3.7-8.9 8.8l-.1 42.3c0 2.3.7 5.5 2.6 7.5 2.4 2.4 6.2 3.2 6.2 3.2-.6 0-1.1 0-1.6-.1-5.6-.9-8.7-5.1-8.7-10.6l.1-42.3c0-6 4.4-10.3 10.4-10.3H529c3.2 0 6-1 7.9-3 1.9-1.9 2.9-4.7 2.9-7.7V73.7c-.1-5.1-4.7-9.4-9.7-9.5zM455.6 62.9H530M455.6 64.2c-6.5 0-10.5-4.7-10.5-10.7V10.1c0-4.6 4.2-9.6 10.1-9.6.2 0 113.3.1 137.4 0 3.1 0 5.6 1.7 5.6 1.7l-2-.5c-.3-.1-1-.1-1.3-.1H455.2c-4.9.2-8.6 3.4-8.6 8.4l-.3 43.4c0 5.2 3.8 10.7 8.9 10.7"/></g><g><path d="M148.2 506.6h-138c-5.6 0-10.1-4.5-10.1-10.1V10.7C.1 5.1 4.6.6 10.2.6h138c5.6 0 10.1 4.5 10.1 10.1v43c0 5.6-4.5 10.1-10.1 10.1H73.4c-5.6 0-10.1 4.5-10.1 10.1v358.9c0 5.6 4.5 10.1 10.1 10.1h74.8c5.6 0 10.1 4.5 10.1 10.1v43.4c.1 5.7-4.5 10.2-10.1 10.2z" fill="#4285F4"/><g opacity=".3" fill="#2A6FD3"><path d="M10 506.6c-3.8 0-7-2.3-8.9-5.8 1.7 3.1 5.6 4.3 8.9 4.3l138.1-.1c5.4 0 9-4 9-7.8l.3-43.3s-.1-3.4-.4-3.9l-.8-3.2.7 1s1.5 2.4 1.5 4.9v44.4c0 4.7-4.6 9.3-10.3 9.3l-138.1.2zM72.5 443c-2.6 0-10.8-3.4-10.8-9.4V74.7c0-5.9 4.5-12.5 10.5-12.5l74-.1c5.1 0 10.5-2.4 10.5-7.7v-43c0-5.2-4.2-10.8-9.4-10.8 3.7-.2 7 1.4 9 4.1 1.3 1.8 2.1 4.1 2 6.8v42.6s0 .6-.2 1.4c-.3 1.4-.8 2.7-1.6 3.9-1 1.4-2.3 2.6-3.8 3.4-1.9 1-4.1 1.1-6.5 1.1H73c-1.7 0-3.2.6-4.5 1.3-3.4 1.9-5.4 5.7-5.1 9.5v358.9c0 2.1.9 3.9 2.1 5.4 1.6 2.3 4.4 3.8 7 4z"/></g><path d="M455.2.6h137.4c5.6 0 10.1 4.5 10.1 10.1v485.8c0 5.6-4.5 10.1-10.1 10.1H455.2c-5.6 0-10.1-4.5-10.1-10.1v-43c0-5.6 4.5-10.1 10.1-10.1h74.4c5.6 0 10.1-4.5 10.1-10.1v-359c0-5.6-4.5-10.1-10.1-10.1h-74.4c-5.6 0-10.1-4.5-10.1-10.1V10.7c0-5.6 4.5-10.1 10.1-10.1z" fill="#00BFA5"/><path d="M595.8 506.1c3.3-1.5 5.4-6 5.4-9.6l.1-485.3c0-3.7-2.2-8.5-5.4-10 3.5 1.1 5.9 4.1 6.6 7.7.2.8.2 1.6.2 2.4v485.3c0 4.1-2.5 7.8-6.9 9.5z" opacity=".3" fill="#04A88C"/><path d="M594.1 506.5c-.3 0-1.3.1-1.6.1H457.4c-1.8 0-3.3 0-4.5-.2-1.1-.2-2.5-.8-3.7-1.8-.1-.1-.4-.3-.7-.6-.3-.2-.5-.4-.5-.4s2.6 1.3 3.8 1.5c2.5.4 3.8.3 5.5.3h1.1l134.3.1c2 0 5.5-.9 7.2-2l-.7.6c-1 1-2.5 1.7-4 2.2.1 0-.8.2-1.1.2z" opacity=".3" fill="#04A88C"/></g><g opacity=".4" fill="#04A88C"><path d="M445.1 53.5c0 5.2 5.3 9.4 10.5 9.4H530c6 0 9.6 4.3 9.6 10.3-.4-4.5-4.4-9-9.6-9h-74.4c-6 0-10.1-4.5-10.4-9l-.1-1.7z"/></g><g opacity=".4" fill="#4FC3F7"><path d="m7.6.9 1.7 1c-4.8.9-7.8 5.2-7.8 8.8L1.4 496c0 3.7 2.2 8.5 5.4 10-3.5-1.1-5.9-4.1-6.6-7.7-.2-.8-.2-1.6-.2-2.4V10.6C.1 6.6 3 2 7.6.9z"/></g><g><path d="M148.4 506.7h-138c-5.6 0-10.1-4.5-10.1-10.1V10.8C.3 5.2 4.8.7 10.4.7h138c5.6 0 10.1 4.5 10.1 10.1v43c0 5.6-4.5 10.1-10.1 10.1H73.6c-5.6 0-10.1 4.5-10.1 10.1v358.9c0 5.6 4.5 10.1 10.1 10.1h74.8c5.6 0 10.1 4.5 10.1 10.1v43.4c.1 5.6-4.5 10.2-10.1 10.2z" fill="url(#b)" transform="translate(2)"/><g opacity=".3"><path d="M9.2 60.6c-3.8 0-7-2.3-8.9-5.8 1.7 3.1 5.6 4.3 8.9 4.3l138.1-.1c5.4 0 9-4 9-7.8l.3-43.3s-.1-3.4-.4-3.9l-.8-3.2.7 1s1.5 2.4 1.5 4.9v44.4c0 4.7-4.6 9.3-10.3 9.3l-138.1.2z" transform="translate(3 446)" fill="url(#c)"/><path d="M11.7 443c-2.6 0-10.8-3.4-10.8-9.4V74.7c0-5.9 4.5-12.5 10.5-12.5l74-.1c5.1 0 10.5-2.4 10.5-7.7v-43C95.9 6.2 91.7.6 86.5.6c3.7-.2 7 1.4 9 4.1 1.3 1.8 2.1 4.1 2 6.8v42.6s0 .6-.2 1.4c-.3 1.4-.8 2.7-1.6 3.9-1 1.4-2.3 2.6-3.8 3.4-1.9 1-4.1 1.1-6.5 1.1H12.2c-1.7 0-3.2.6-4.5 1.3-3.4 1.9-5.4 5.7-5.1 9.5v358.9c0 2.1.9 3.9 2.1 5.4 1.7 2.4 4.4 3.8 7 4z" transform="translate(63)" fill="url(#d)"/></g><path d="M455.4.6h137.4c5.6 0 10.1 4.5 10.1 10.1v485.8c0 5.6-4.5 10.1-10.1 10.1H455.4c-5.6 0-10.1-4.5-10.1-10.1v-43c0-5.6 4.5-10.1 10.1-10.1h74.4c5.6 0 10.1-4.5 10.1-10.1V74.4c0-5.6-4.5-10.1-10.1-10.1h-74.4c-5.6 0-10.1-4.5-10.1-10.1V10.8c0-5.6 4.5-10.2 10.1-10.2z" fill="url(#e)" transform="translate(2)"/><path d="M0 505.1c3.3-1.5 5.4-6 5.4-9.6l.1-485.3C5.5 6.5 3.3 1.7.1.2 3.6 1.3 6 4.3 6.7 7.9c.2.8.2 1.6.2 2.4v485.3c0 4.1-2.5 7.9-6.9 9.5z" opacity=".3" transform="translate(598 1)" fill="url(#f)"/><path d="M146.3 3.6c-.3 0-1.3.1-1.6.1H9.6c-1.8 0-3.3 0-4.5-.2-1.1-.2-2.5-.8-3.7-1.8-.1-.1-.4-.3-.7-.6C.4.9.2.7.2.7S2.8 2 4 2.2c2.5.4 3.8.3 5.5.3h1.1l134.3.1c2 0 5.5-.9 7.2-2l-.7.6c-1 1-2.5 1.7-4 2.2.1-.1-.8.1-1.1.2z" opacity=".3" transform="translate(450 503)" fill="url(#g)"/></g></g></svg>
